<?xml version="1.0"?>
<svg xmlns="http://www.w3.org/2000/svg" viewBox="0 0 256 256" width="512" height="512"><path d="M211.835,247.705l-13.364-70.689a13.889,13.889,0,0,0-10.478-12.7l-24.506-6.168a27.5,27.5,0,0,1-5.445-2l-4.518-2.227c-.457,1.085-.9,2.239-1.312,3.479-2.387,7.121-8.9,14.292-14.567,19.513a14.22,14.22,0,0,1-19.29,0c-5.67-5.221-12.18-12.392-14.567-19.513-.415-1.24-.855-2.394-1.312-3.479l-4.518,2.227a27.491,27.491,0,0,1-5.446,2l-13.054,3.285V253.5h126.9A5.49,5.49,0,0,0,211.835,247.705Z" fill="#414344"/><path d="M184.124,253.5V198.768a5.443,5.443,0,0,0-5.444-5.443H132.374a5.443,5.443,0,0,0-5.443,5.443V253.5Z" fill="#965622"/><path d="M159.18,205.2a11.9,11.9,0,0,0-11.308,11.181,11.771,11.771,0,0,0,4.093,9.552,3.039,3.039,0,0,1,1.082,2.3v1.628a2.639,2.639,0,0,0,2.638,2.639h7.934a2.64,2.64,0,0,0,2.639-2.639v-1.629a3.03,3.03,0,0,1,1.077-2.3A11.8,11.8,0,0,0,159.18,205.2Z" fill="#edf4fc"/><path d="M79.458,253.5V124.266a5,5,0,1,0-10.008,0V253.5Z" fill="#f9d0b4"/><path d="M69.45,163.956l-1.443.363a13.889,13.889,0,0,0-10.478,12.7L44.165,247.705a5.49,5.49,0,0,0,5.481,5.795h19.8Z" fill="#414344"/><path d="M137.5,193.325h-5.126a5.443,5.443,0,0,0-5.443,5.443V253.5H137.5Z" fill="#b77035"/><path d="M203.438,84.348C176.389,59.433,128,60.034,128,60.034s-48.389-.6-75.438,24.314a1.543,1.543,0,0,0,1.471,2.627c9.422-2.873,28.21-7.061,44.591-1.279q3.981,1.4,7.314,2.547a67.915,67.915,0,0,0,44.124,0q3.34-1.146,7.314-2.547c16.381-5.782,35.169-1.594,44.591,1.279A1.543,1.543,0,0,0,203.438,84.348Z" fill="#5b5d60"/><path d="M151.114,21.392C148.577,10.679,139.01,2.525,128,2.525c0,0-16.507-1.139-31.306,13.66-7.4,7.4-12.806,7.4-16.364,5.55a11.649,11.649,0,0,0-13.311,2.094L60.844,29.7a1.594,1.594,0,0,0,1.748,2.611c5.573-2.441,11.888-4.184,14.75-1.322,4.212,4.212,14.035,9.663,23.471,7.6L94.784,64.042A155.31,155.31,0,0,1,128,60.034a155.31,155.31,0,0,1,33.216,4.008Z" fill="#414344"/><path d="M158.841,85.208c-1.328.418-3.339,1.168-8.779,3.035a67.915,67.915,0,0,1-44.124,0c-5.78-1.983-7.227-2.546-8.779-3.035h0c-.048,7.132.292,23.7,4.075,34.857a1.161,1.161,0,0,0,1.992.361,30.215,30.215,0,0,1,13.386-9.229A8.656,8.656,0,0,1,128,119.437a8.656,8.656,0,0,1,11.388-8.24,30.215,30.215,0,0,1,13.386,9.229,1.161,1.161,0,0,0,1.992-.361c3.783-11.161,4.123-27.725,4.075-34.857Z" fill="#f9d0b4"/><path d="M158.841,85.208c.048,7.132-.292,23.7-4.075,34.857a1.161,1.161,0,0,1-1.992.361,30.215,30.215,0,0,0-13.386-9.229A8.656,8.656,0,0,0,128,119.437s13.3,1.212,21.207,7.2a1.686,1.686,0,0,1,.076,2.625l-.015.012c-7.077,5.79-13.3,5.008-17.159,3.446a10.968,10.968,0,0,0-8.218,0c-3.857,1.562-10.082,2.344-17.159-3.446l-.015-.012a1.686,1.686,0,0,1,.076-2.625c7.9-5.984,21.207-7.2,21.207-7.2a8.656,8.656,0,0,0-11.388-8.24,30.215,30.215,0,0,0-13.386,9.229,1.161,1.161,0,0,1-1.992-.361C97.451,108.9,97.111,92.34,97.159,85.208a50.51,50.51,0,0,0-7.827-1.772c.49,7.322,2.387,36.248,2.387,45.834,0,11.009,7.506,14.512,12.069,28.13,2.387,7.122,8.9,14.293,14.568,19.514a14.217,14.217,0,0,0,19.288,0c5.669-5.221,12.181-12.392,14.568-19.514,4.563-13.618,12.069-17.121,12.069-28.13,0-9.586,1.9-38.512,2.387-45.834A50.51,50.51,0,0,0,158.841,85.208Z" fill="#edf4fc"/><path d="M106.717,129.258l.015.012c7.077,5.79,13.3,5.008,17.159,3.446a10.968,10.968,0,0,1,8.218,0c3.857,1.562,10.082,2.344,17.159-3.446l.015-.012a1.686,1.686,0,0,0-.076-2.625c-7.9-5.984-21.207-7.2-21.207-7.2s-13.3,1.212-21.207,7.2A1.686,1.686,0,0,0,106.717,129.258Z" fill="#f9d0b4"/><path d="M211.835,247.705l-13.364-70.689a13.854,13.854,0,0,0-1.705-5.914,204.42,204.42,0,0,0-12.973,25.813,5.419,5.419,0,0,1,.331,1.853V253.5h22.23A5.49,5.49,0,0,0,211.835,247.705Z" fill="#5b5d60"/><path d="M69.45,190.557A217.111,217.111,0,0,0,59.234,171.1a13.854,13.854,0,0,0-1.7,5.914L44.165,247.705a5.49,5.49,0,0,0,5.481,5.795h19.8Z" fill="#5b5d60"/><path d="M105.981,93.739a6.506,6.506,0,1,0,12.513-2.5,67.932,67.932,0,0,1-10.386-2.3A6.48,6.48,0,0,0,105.981,93.739Z" fill="#818182"/><path d="M150.019,93.739a6.48,6.48,0,0,0-2.127-4.8,67.932,67.932,0,0,1-10.386,2.3,6.506,6.506,0,1,0,12.513,2.5Z" fill="#818182"/><path d="M181.372,24.6h-2.266V22.33a3.071,3.071,0,1,0-6.142,0V24.6H170.7a3.071,3.071,0,0,0,0,6.142h2.265V33a3.071,3.071,0,1,0,6.142,0V30.738h2.266a3.071,3.071,0,0,0,0-6.142Z" fill="#70d6f9"/><path d="M52.857,149.366a10.8,10.8,0,0,1-8.654-8.478.2.2,0,0,0-.384,0,10.794,10.794,0,0,1-8.654,8.478.19.19,0,0,0,0,.376,10.8,10.8,0,0,1,8.654,8.479.2.2,0,0,0,.384,0,10.8,10.8,0,0,1,8.654-8.479A.19.19,0,0,0,52.857,149.366Z" fill="#f5c84c"/><circle cx="35.019" cy="182.285" r="3.285" fill="#70d6f9"/><circle cx="184.019" cy="142.285" r="3.285" fill="#ef4460"/><circle cx="164.019" cy="3.285" r="3.285" fill="#87d147"/><path d="M99.462,46.8a2.5,2.5,0,0,1-2.435-3.076L100.4,29.492a2.5,2.5,0,1,1,4.866,1.152l-3.371,14.233A2.5,2.5,0,0,1,99.462,46.8Z"/><path d="M163.531,244.867h-8.007a2.5,2.5,0,0,1,0-5h8.007a2.5,2.5,0,0,1,0,5Z"/><path d="M121.472,112.931a2.5,2.5,0,0,1-2.389-3.243l2.617-8.416a2.5,2.5,0,1,1,4.774,1.485l-2.616,8.416A2.5,2.5,0,0,1,121.472,112.931Z"/><path d="M134.528,112.931a2.5,2.5,0,0,1-2.386-1.758l-2.616-8.416a2.5,2.5,0,1,1,4.774-1.485l2.617,8.416a2.5,2.5,0,0,1-2.389,3.243Z"/><path d="M79.458,256H69.45a2.5,2.5,0,0,1-2.5-2.5V124.266a7.5,7.5,0,1,1,15.008,0V253.5A2.5,2.5,0,0,1,79.458,256Zm-7.508-5h5.008V124.266a2.5,2.5,0,1,0-5.008,0Z"/><path d="M69.45,256h-19.8a7.991,7.991,0,0,1-7.978-8.434,2.365,2.365,0,0,1,.04-.325l13.335-70.535A16.315,16.315,0,0,1,67.4,161.9l1.443-.364a2.5,2.5,0,0,1,3.111,2.425V253.5A2.5,2.5,0,0,1,69.45,256Zm-22.794-8.016A2.99,2.99,0,0,0,49.646,251h17.3V167.3a11.332,11.332,0,0,0-6.925,9.855,2.363,2.363,0,0,1-.039.325Z"/><path d="M206.354,256H79.458a2.5,2.5,0,0,1-2.5-2.5V161.437a2.5,2.5,0,0,1,1.89-2.425L91.9,155.726a25,25,0,0,0,4.951-1.82l4.518-2.227a2.5,2.5,0,0,1,3.41,1.273c.51,1.212.96,2.407,1.378,3.654,1.8,5.372,6.6,11.757,13.889,18.468a11.663,11.663,0,0,0,15.9,0c7.286-6.711,12.089-13.1,13.889-18.468.417-1.246.868-2.441,1.378-3.654a2.5,2.5,0,0,1,3.411-1.274l4.517,2.228a25.041,25.041,0,0,0,4.95,1.82L188.6,161.9a16.316,16.316,0,0,1,12.353,14.811l13.335,70.535a2.53,2.53,0,0,1,.04.325A7.991,7.991,0,0,1,206.354,256Zm-124.4-5h124.4a2.99,2.99,0,0,0,2.99-3.016l-13.33-70.5a2.363,2.363,0,0,1-.039-.325,11.339,11.339,0,0,0-8.592-10.412l-24.506-6.168a30.084,30.084,0,0,1-5.94-2.184l-2.07-1.021c-.1.273-.192.547-.285.825-2.1,6.256-7.225,13.173-15.244,20.557a16.629,16.629,0,0,1-22.676,0c-8.019-7.384-13.147-14.3-15.244-20.557-.093-.278-.188-.552-.285-.825l-2.07,1.021a30.047,30.047,0,0,1-5.941,2.184l-11.164,2.81Z"/><path d="M184.124,256H126.931a2.5,2.5,0,0,1-2.5-2.5V198.769a7.953,7.953,0,0,1,7.943-7.944H178.68a7.953,7.953,0,0,1,7.944,7.944V253.5A2.5,2.5,0,0,1,184.124,256Zm-54.693-5h52.193V198.769a2.948,2.948,0,0,0-2.944-2.944H132.374a2.947,2.947,0,0,0-2.943,2.944Z"/><path d="M137.5,256H126.931a2.5,2.5,0,0,1-2.5-2.5V198.769a7.953,7.953,0,0,1,7.943-7.944H137.5a2.5,2.5,0,0,1,2.5,2.5V253.5A2.5,2.5,0,0,1,137.5,256Zm-8.069-5H135V195.825h-2.626a2.947,2.947,0,0,0-2.943,2.944Z"/><path d="M163.619,235h-7.933a5.145,5.145,0,0,1-5.14-5.138v-1.628a.554.554,0,0,0-.211-.405,14.222,14.222,0,0,1-4.96-11.572A14.379,14.379,0,0,1,159.082,202.7h0a14.3,14.3,0,0,1,9.882,25.131.543.543,0,0,0-.206.4v1.629A5.144,5.144,0,0,1,163.619,235Zm-4.342-27.3a9.3,9.3,0,0,0-5.682,16.34,5.54,5.54,0,0,1,1.951,4.2v1.628a.139.139,0,0,0,.14.138h7.933a.138.138,0,0,0,.139-.138v-1.629a5.529,5.529,0,0,1,1.949-4.192,9.3,9.3,0,0,0-6.43-16.342Z"/><path d="M165.157,219.846h-1.4a2.5,2.5,0,1,1,0-5h1.4a2.5,2.5,0,1,1,0,5Z"/><path d="M155.549,219.846h-1.4a2.5,2.5,0,0,1,0-5h1.4a2.5,2.5,0,0,1,0,5Z"/><path d="M159.652,226.852a2.5,2.5,0,0,1-2.5-2.5v-1a2.5,2.5,0,0,1,5,0v1A2.5,2.5,0,0,1,159.652,226.852Z"/><path d="M128,94.405a70.51,70.51,0,0,1-22.874-3.8q-3.35-1.149-7.334-2.555c-15.621-5.513-33.665-1.543-43.03,1.314a4.043,4.043,0,0,1-3.893-6.858C78.33,57.213,126,57.516,128.031,57.535c1.941-.026,49.636-.325,77.1,24.975a4.043,4.043,0,0,1-3.894,6.857c-9.366-2.857-27.409-6.827-43.03-1.314q-3.992,1.41-7.335,2.555A70.527,70.527,0,0,1,128,94.405ZM80.26,80.3a57.742,57.742,0,0,1,19.2,3.038c2.646.934,5.071,1.779,7.292,2.54a65.757,65.757,0,0,0,42.5,0c2.222-.761,4.647-1.606,7.293-2.54,14.817-5.23,31.361-2.692,41.944.058-26.5-21.147-70.01-20.882-70.456-20.861-.51-.016-44.037-.261-70.518,20.861A92.142,92.142,0,0,1,80.26,80.3Zm121.485,5.888h0Z"/><path d="M161.215,66.542a2.53,2.53,0,0,1-.565-.064,153.585,153.585,0,0,0-32.619-3.943,153.966,153.966,0,0,0-32.682,3.943,2.5,2.5,0,0,1-3-3.012l5.2-21.949c-9.214.379-17.94-4.729-21.976-8.766C75.019,32.2,72.516,30.688,63.6,34.6a4.094,4.094,0,0,1-4.473-6.713L65.3,22.016a14.109,14.109,0,0,1,16.187-2.5c3.642,1.894,8.165.177,13.443-5.1,15-15,31.594-14.473,33.15-14.393C140,.062,150.7,8.794,153.547,20.816l10.1,42.65a2.5,2.5,0,0,1-2.433,3.076Zm-60.4-30.455a2.5,2.5,0,0,1,2.433,3.076l-5.114,21.59a154.67,154.67,0,0,1,29.9-3.218,154.57,154.57,0,0,1,29.836,3.218l-9.185-38.785h0C146.356,12.15,137.659,5.024,128,5.024c-.058,0-.115,0-.172,0-.15-.012-15.617-.815-29.366,12.934-8.714,8.714-15.3,8.073-19.285,6a9.113,9.113,0,0,0-10.436,1.688l-2.845,2.7c6.227-2.067,10.57-1.772,13.213.872,3.666,3.666,12.66,8.786,21.171,6.929A2.479,2.479,0,0,1,100.813,36.087Z"/><path d="M102.322,123.345a3.59,3.59,0,0,1-.683-.065,3.655,3.655,0,0,1-2.773-2.413c-3.935-11.61-4.253-28.816-4.207-35.675a2.5,2.5,0,0,1,3.25-2.368c.826.26,1.625.54,3.029,1.034,1.266.445,3.038,1.069,5.812,2.02a65.748,65.748,0,0,0,42.5,0c2.608-.894,4.425-1.532,5.757-2,1.48-.519,2.376-.833,3.084-1.055a2.5,2.5,0,0,1,3.25,2.368c.046,6.859-.272,24.065-4.207,35.676a3.662,3.662,0,0,1-6.267,1.174,27.706,27.706,0,0,0-12.288-8.479,5.982,5.982,0,0,0-5.471.816,6.153,6.153,0,0,0-2.608,5.058,2.5,2.5,0,1,1-5,0,6.153,6.153,0,0,0-2.608-5.058,5.979,5.979,0,0,0-5.471-.816,27.706,27.706,0,0,0-12.288,8.479A3.691,3.691,0,0,1,102.322,123.345ZM99.67,88.712c.1,7.232.679,19.218,3.247,28.332a32.38,32.38,0,0,1,12.885-8.212,10.92,10.92,0,0,1,10,1.48,11.183,11.183,0,0,1,2.2,2.074,11.183,11.183,0,0,1,2.2-2.074,10.922,10.922,0,0,1,10-1.48,32.373,32.373,0,0,1,12.885,8.212c2.568-9.113,3.151-21.1,3.247-28.33-1.306.458-3.045,1.066-5.456,1.894a70.793,70.793,0,0,1-45.748,0C102.611,89.745,100.914,89.149,99.67,88.712Z"/><path d="M128,183.217a16.689,16.689,0,0,1-11.337-4.464c-8.019-7.385-13.148-14.3-15.245-20.558a55.99,55.99,0,0,0-6.469-12.877c-2.947-4.667-5.73-9.076-5.73-16.048,0-9.375-1.823-37.324-2.382-45.666a2.5,2.5,0,0,1,2.857-2.641,52.958,52.958,0,0,1,8.216,1.861,2.5,2.5,0,0,1,1.749,2.4c-.042,6.171.214,21.014,3.258,31.819a32.38,32.38,0,0,1,12.885-8.212,10.92,10.92,0,0,1,10,1.48,11.183,11.183,0,0,1,2.2,2.074,11.183,11.183,0,0,1,2.2-2.074,10.922,10.922,0,0,1,10-1.48,32.373,32.373,0,0,1,12.885,8.212c3.044-10.806,3.3-25.648,3.258-31.819a2.5,2.5,0,0,1,1.749-2.4,52.958,52.958,0,0,1,8.216-1.861,2.5,2.5,0,0,1,2.857,2.641c-.559,8.342-2.382,36.291-2.382,45.666,0,6.972-2.783,11.381-5.73,16.048a55.99,55.99,0,0,0-6.469,12.877c-2.1,6.256-7.226,13.173-15.245,20.558A16.689,16.689,0,0,1,128,183.217ZM92.038,86.455c.709,10.8,2.181,34.269,2.181,42.815,0,5.526,2.079,8.82,4.958,13.379a60.218,60.218,0,0,1,6.982,13.957c1.8,5.371,6.6,11.758,13.891,18.47a11.662,11.662,0,0,0,15.9,0c7.288-6.712,12.091-13.1,13.891-18.47a60.218,60.218,0,0,1,6.982-13.957c2.879-4.559,4.958-7.853,4.958-13.379,0-8.546,1.472-32.015,2.181-42.815q-1.333.281-2.619.627c-.032,7.756-.6,23.128-4.209,33.786a3.662,3.662,0,0,1-6.267,1.174,27.706,27.706,0,0,0-12.288-8.479,5.982,5.982,0,0,0-5.471.816,6.178,6.178,0,0,0-2.232,2.912c4.469.693,13.591,2.618,19.841,7.349a4.173,4.173,0,0,1,1.657,3.264,4.121,4.121,0,0,1-1.5,3.285c-8.413,6.883-15.952,5.362-19.7,3.844a8.518,8.518,0,0,0-6.341,0c-3.746,1.518-11.288,3.038-19.68-3.828a4.185,4.185,0,0,1,.134-6.565c6.249-4.731,15.372-6.656,19.841-7.349a6.178,6.178,0,0,0-2.232-2.912,5.979,5.979,0,0,0-5.471-.816,27.706,27.706,0,0,0-12.288,8.479,3.662,3.662,0,0,1-6.267-1.175c-3.613-10.657-4.177-26.029-4.209-33.785Q93.373,86.736,92.038,86.455ZM128,129.41a13.447,13.447,0,0,1,5.047.988c3.167,1.283,8.071,1.853,13.781-2.394-6.768-4.573-17.16-5.871-18.827-6.054-1.665.185-12.075,1.494-18.829,6.054,5.714,4.246,10.614,3.676,13.781,2.394A13.447,13.447,0,0,1,128,129.41Z"/><path d="M118.208,136.326c-3.7,0-8.239-1.178-13.059-5.121l-.02-.016a4.121,4.121,0,0,1-1.5-3.285,4.173,4.173,0,0,1,1.657-3.264c8.378-6.343,21.918-7.64,22.49-7.693a2.647,2.647,0,0,1,.454,0c.572.053,14.112,1.35,22.49,7.693a4.173,4.173,0,0,1,1.657,3.264,4.121,4.121,0,0,1-1.5,3.285c-8.413,6.883-15.952,5.362-19.7,3.844a8.518,8.518,0,0,0-6.341,0A17.7,17.7,0,0,1,118.208,136.326ZM109.172,128c5.71,4.247,10.614,3.677,13.781,2.394a13.388,13.388,0,0,1,10.094,0c3.167,1.283,8.071,1.852,13.781-2.394-6.752-4.559-17.159-5.869-18.828-6.053C126.331,122.135,115.924,123.445,109.172,128Z"/><path d="M206.354,256h-22.23a2.5,2.5,0,0,1-2.5-2.5V198.769a2.946,2.946,0,0,0-.182-1,2.5,2.5,0,0,1,.036-1.8,208.688,208.688,0,0,1,13.134-26.137,2.5,2.5,0,0,1,4.345.064,16.256,16.256,0,0,1,2,6.809l13.335,70.535a2.53,2.53,0,0,1,.04.325A7.991,7.991,0,0,1,206.354,256Zm-19.73-5h19.73a2.99,2.99,0,0,0,2.99-3.016l-13.33-70.5,0-.023a195.443,195.443,0,0,0-9.575,19.606,7.79,7.79,0,0,1,.189,1.706Z"/><path d="M69.45,256h-19.8a7.991,7.991,0,0,1-7.978-8.434,2.365,2.365,0,0,1,.04-.325l13.335-70.535a16.256,16.256,0,0,1,2-6.809,2.5,2.5,0,0,1,4.345-.064,217.773,217.773,0,0,1,10.335,19.682,2.513,2.513,0,0,1,.227,1.042V253.5A2.5,2.5,0,0,1,69.45,256Zm-22.794-8.016A2.99,2.99,0,0,0,49.646,251h17.3V191.1c-2.06-4.46-4.392-9.032-6.959-13.65l-.005.026Z"/><path d="M112.487,102.745a9,9,0,0,1-6.065-15.654,2.51,2.51,0,0,1,2.418-.544,65.617,65.617,0,0,0,10,2.222,2.5,2.5,0,0,1,1.957,1.514,9.005,9.005,0,0,1-8.315,12.462Zm-3.5-10.946a3.944,3.944,0,0,0-.5,1.94,4.006,4.006,0,1,0,8.011,0c0-.092,0-.184-.009-.275A70.806,70.806,0,0,1,108.984,91.8Z"/><path d="M143.513,102.745A9.005,9.005,0,0,1,135.2,90.283a2.5,2.5,0,0,1,1.957-1.514,65.617,65.617,0,0,0,10-2.222,2.508,2.508,0,0,1,2.418.544,9,9,0,0,1-6.065,15.654Zm-4-9.281c-.006.091-.009.183-.009.275a4.006,4.006,0,1,0,8.011,0,3.944,3.944,0,0,0-.5-1.94A70.806,70.806,0,0,1,139.517,93.464Z"/></svg>
